<svg
  width="48"
  height="48"
  viewBox="0 0 48 48"
  fill="none"
  xmlns="http://www.w3.org/2000/svg"
>
<mask
    id="mask0_1146_1853"
    style="mask-type:alpha"
    maskUnits="userSpaceOnUse"
    x="0"
    y="0"
    width="48"
    height="48"
  >
<g style="mix-blend-mode:color">
<circle cx="24" cy="24" r="24" fill="white" />
</g>
</mask>
<g mask="url(#mask0_1146_1853)">
<circle cx="24" cy="24" r="24" fill="#0D3D38" />
<circle cx="24" cy="24" r="21.6997" fill="#F1FCFA" />
</g>
<mask
    id="mask1_1146_1853"
    style="mask-type:alpha"
    maskUnits="userSpaceOnUse"
    x="2"
    y="2"
    width="44"
    height="44"
  >
<circle cx="24" cy="24" r="21.6997" fill="#FFF9E9" />
</mask>
<g mask="url(#mask1_1146_1853)">
<path
      d="M5.73199 28.9073H1.13135L5.73199 38.1853L13.1697 44.7796L26.6649 47.3099L35.4061 44.4728L41.847 39.5655L45.3742 28.9073L37.0163 36.9585L26.2048 32.6645L18.6905 36.9585L13.4764 31.131L8.95243 34.8115L5.73199 28.9073Z"
      fill="#8DCEC3"
      stroke="#8DCEC3"
    />
<path
      d="M22.2335 14.8043C22.2335 14.8043 15.7926 10.6637 14.8725 10.2037C13.9523 9.74361 12.2654 8.90015 11.1153 10.2037C9.96511 11.5072 10.6552 12.5807 11.1153 13.0407C11.5753 13.5008 19.0897 18.6382 19.0897 18.6382L18.553 31.3666L20.1632 32.0567L23.6137 21.3219L30.1312 25.2324C30.1312 25.2324 29.9012 28.6829 30.1312 28.9896C30.3613 29.2963 31.8948 29.8331 31.8948 29.8331L33.8118 25.2324L37.4923 22.3954C37.4923 22.3954 36.4188 21.3219 35.8054 21.3219C35.192 21.3219 32.5082 22.3954 32.5082 22.3954L27.1408 18.6382L36.4188 11.8906L34.8852 10.8171L22.2335 14.8043Z"
      fill="#0D3D38"
      stroke="#0D3D38"
    />
<path
      fill-rule="evenodd"
      clip-rule="evenodd"
      d="M3.81534 15.9489L8.26445 24.345H5.54016L8.2439 29.3674H-0.919922L1.78382 24.345H-0.633759L3.81534 15.9489ZM14.235 35.1565L9.7195 27.9105L5.20399 35.1565H7.30262L4.40714 39.7955H7.18296L4.40714 44.2428H12.0228L10.9757 45.623H19.9943V46.3131H34.7163V44.2428H43.8625L41.3499 40.2172H43.4538L40.6714 35.6549H43.0554L38.4735 28.0639L33.8916 35.6549H36.2756L33.4932 40.2172H35.7504L34.3731 42.4239L27.7387 33.5846L22.3238 40.7992L18.4794 35.7316L13.6736 42.0667L12.256 39.7955H15.0319L12.1364 35.1565H14.235ZM40.6084 25.1501L44.9911 16.869L49.3738 25.1501H46.8322L49.3738 30.0191H40.6084L43.1499 25.1501H40.6084Z"
      fill="#0D3D38"
    />
</g>
</svg>
