<svg
  width="16"
  height="16"
  viewBox="0 0 16 16"
  fill="none"
  xmlns="http://www.w3.org/2000/svg"
>
<path
    d="M14.3862 4.56999C14.4795 4.25999 14.3862 4.03265 13.9448 4.03265H12.4828C12.1108 4.03265 11.9408 4.22932 11.8475 4.44532C11.8475 4.44532 11.1042 6.25799 10.0508 7.43332C9.71083 7.77532 9.5555 7.88332 9.37016 7.88332C9.2775 7.88332 9.14283 7.77532 9.14283 7.46532V4.56999C9.14283 4.19799 9.0355 4.03265 8.7255 4.03265H6.42816C6.19616 4.03265 6.05616 4.20465 6.05616 4.36865C6.05616 4.72065 6.58283 4.80199 6.63683 5.79399V7.94599C6.63683 8.41732 6.55216 8.50332 6.3655 8.50332C5.87016 8.50332 4.66483 6.68399 3.9495 4.60132C3.81016 4.19665 3.6695 4.03332 3.29616 4.03332H1.83483C1.41683 4.03332 1.3335 4.22999 1.3335 4.44599C1.3335 4.83399 1.82883 6.75399 3.64083 9.29332C4.84883 11.0273 6.5495 11.9673 8.09883 11.9673C9.0275 11.9673 9.14216 11.7587 9.14216 11.3987V10.088C9.14216 9.67065 9.23083 9.58665 9.52483 9.58665C9.74083 9.58665 10.1128 9.69599 10.9802 10.5313C11.9708 11.522 12.1348 11.9667 12.6915 11.9667H14.1528C14.5702 11.9667 14.7788 11.758 14.6588 11.346C14.5275 10.936 14.0542 10.3393 13.4262 9.63332C13.0848 9.23065 12.5748 8.79732 12.4195 8.58065C12.2028 8.30132 12.2655 8.17799 12.4195 7.92999C12.4202 7.93065 14.2008 5.42265 14.3862 4.56999Z"
    fill="#F1FCFA"
  />
</svg>
