<svg
  width="16"
  height="16"
  viewBox="0 0 16 16"
  fill="none"
  xmlns="http://www.w3.org/2000/svg"
>
<g clip-path="url(#clip0_1174_347)">
<path
      fill-rule="evenodd"
      clip-rule="evenodd"
      d="M6.39075 10.0689V5.57946C7.98452 6.32941 9.21887 7.05387 10.6788 7.83493C9.47467 8.5027 7.98452 9.25196 6.39075 10.0689ZM15.2728 3.34665C14.9979 2.98444 14.5293 2.7025 14.0305 2.60915C12.5642 2.33071 3.41679 2.32992 1.95132 2.60915C1.55129 2.68414 1.19507 2.86541 0.889066 3.14704C-0.40029 4.34376 0.00373294 10.7614 0.314518 11.8009C0.445206 12.2509 0.614152 12.5754 0.82692 12.7884C1.10105 13.0701 1.47637 13.264 1.90749 13.3509C3.11476 13.6007 9.33443 13.7403 14.005 13.3884C14.4353 13.3135 14.8162 13.1133 15.1166 12.8197C16.3087 11.6278 16.2275 4.84973 15.2728 3.34665Z"
      fill="#F1FCFA"
    />
</g>
<defs>
<clipPath id="clip0_1174_347">
<rect width="16" height="16" fill="white" />
</clipPath>
</defs>
</svg>
