<svg width="704" height="484" viewBox="0 0 704 484" fill="none" xmlns="http://www.w3.org/2000/svg">
<g clip-path="url(#clip0_1162_2471)">
<path d="M704 -80H0V624H704V-80Z" fill="#D9F3EE"/>
<mask id="mask0_1162_2471" style="mask-type:luminance" maskUnits="userSpaceOnUse" x="0" y="-80" width="704" height="704">
<path d="M704 -80H0V624H704V-80Z" fill="white"/>
</mask>
<g mask="url(#mask0_1162_2471)">
<path d="M-21.12 352.995L7.82707 336.768L34.848 371.989L-6.21914 394.706L-21.12 352.995Z" fill="#8DCEC3"/>
<path d="M62.4701 81.3427L33.792 24.506L101.711 -10.3927L115.456 58.6528L111.232 78.5267L62.4701 81.3427Z" fill="#8DCEC3"/>
<path d="M420.037 553.437L465.754 383.812L514.749 399.054L471.366 566.202L420.037 553.437Z" fill="#8DCEC3"/>
<path d="M83.776 421.497L99.264 450.878L101.711 503.851L118.272 516.992L141.214 624L-14.08 640.192L0 471.911L83.776 421.497Z" fill="#8DCEC3"/>
<path d="M202.01 91.5986H173.184V126.272H88.0831L96.0763 175.522H110.88L124.256 235.392L212.642 211.808L233.024 214.976V206.528L240.768 131.2L202.01 91.5986Z" fill="#8DCEC3"/>
<path d="M177.477 -39.7734L101.711 -10.3927L-5.632 38.7986" stroke="#AFDFD7" stroke-width="5" stroke-miterlimit="10"/>
<path d="M140.8 229.76L212.642 211.808L233.024 214.624" stroke="#AFDFD7" stroke-width="5" stroke-miterlimit="10"/>
<path d="M146.126 252.333L236.782 229.76" stroke="#AFDFD7" stroke-width="5" stroke-miterlimit="10"/>
<path d="M154.814 271.319L245.469 248.745" stroke="#AFDFD7" stroke-width="5" stroke-miterlimit="10"/>
<path d="M183.06 219.2L200.508 272" stroke="#AFDFD7" stroke-width="5" stroke-miterlimit="10"/>
<path d="M704 102.788L634.069 143.019L514.749 260.032L503.633 271.319" stroke="#AFDFD7" stroke-width="5" stroke-miterlimit="10"/>
<path d="M503.36 214.976L449.959 269.819" stroke="#AFDFD7" stroke-width="5" stroke-miterlimit="10"/>
<path d="M459.794 279.32L482.24 238.112L497.024 245.831L503.633 238.112L556.387 219.2L538.56 271.319L517.44 286.784L508.089 307.2L497.024 315.288" stroke="#AFDFD7" stroke-width="5" stroke-miterlimit="10"/>
<path d="M468.561 287.789L477.664 272L496.672 264.256L508.089 277.632L502.397 295.584L485.554 304.207" stroke="#AFDFD7" stroke-width="5" stroke-miterlimit="10"/>
<path d="M488.325 267.656L485.76 258.624L497.024 245.831" stroke="#AFDFD7" stroke-width="5" stroke-miterlimit="10"/>
<path d="M566.941 284.231L491.392 252.227" stroke="#AFDFD7" stroke-width="5" stroke-miterlimit="10"/>
<path d="M173.184 91.5986L111.232 78.5267L62.4701 81.3427L26.752 96.4126" stroke="#AFDFD7" stroke-width="5" stroke-miterlimit="10"/>
<path d="M88.0831 126.272L77.1584 81.3427" stroke="#AFDFD7" stroke-width="5" stroke-miterlimit="10"/>
<path d="M115.456 126.272L111.933 99.52L82.62 103.807" stroke="#AFDFD7" stroke-width="5" stroke-miterlimit="10"/>
<path d="M458.304 624L503.595 423.595L569.301 279.04L655.659 170.976L711.04 117.824V624H458.304Z" fill="#53B9AB"/>
<path d="M238.246 546.999L224.811 481.378L101.711 503.851L118.272 516.992L130.023 571.8L238.246 546.999Z" fill="#8DCEC3"/>
<path d="M296.509 624L267.52 477.568L229.504 355.072L211.2 336.768L145.024 384.64L-14.08 480.384" stroke="#AFDFD7" stroke-width="14" stroke-miterlimit="10" stroke-linejoin="bevel"/>
<path d="M214.016 336.768C232.679 336.768 247.808 321.639 247.808 302.976C247.808 284.313 232.679 269.184 214.016 269.184C195.353 269.184 180.224 284.313 180.224 302.976C180.224 321.639 195.353 336.768 214.016 336.768Z" stroke="#AFDFD7" stroke-width="16" stroke-miterlimit="10"/>
<path d="M180.894 309.695L26.752 284.672" stroke="#AFDFD7" stroke-width="14" stroke-miterlimit="10" stroke-linejoin="bevel"/>
<path d="M-14.08 310.016L116.864 235.392H143.616L149.248 273.408L168.397 307.721" stroke="#AFDFD7" stroke-width="14" stroke-miterlimit="10" stroke-linejoin="bevel"/>
<path d="M245.485 290.664L363.264 186.112L557.568 41.088L691.328 -37.76L711.04 -98.304" stroke="#AFDFD7" stroke-width="16" stroke-miterlimit="10" stroke-linejoin="bevel"/>
<path d="M173.184 -80L180.224 -22.272L176 65.024L240.768 131.2L233.728 207.232L244.992 290.304" stroke="#AFDFD7" stroke-width="9" stroke-miterlimit="10" stroke-linejoin="bevel"/>
<path d="M458.304 107.968L358.185 -40.997L247.808 -84.224L244.992 -8.192L259.072 60.8L240.768 131.2L410.432 124.16L376.292 67.8301" stroke="#AFDFD7" stroke-width="5" stroke-miterlimit="10" stroke-linejoin="bevel"/>
<path d="M233.024 206.528L341.851 205.12" stroke="#AFDFD7" stroke-width="5" stroke-miterlimit="10" stroke-linejoin="bevel"/>
<path d="M503.633 81.3427L561.088 155.84L513.216 193.856L480.832 154.432" stroke="#AFDFD7" stroke-width="5" stroke-miterlimit="10" stroke-linejoin="bevel"/>
<path d="M520.256 206.528L625.856 126.272L644.16 117.824" stroke="#AFDFD7" stroke-width="5" stroke-miterlimit="10" stroke-linejoin="bevel"/>
<path d="M317.504 205.12V109.376L341.44 99.52L349.888 84.032L522.569 -21.9214" stroke="#AFDFD7" stroke-width="5" stroke-miterlimit="10" stroke-linejoin="bevel"/>
<path d="M317.504 -21.9214L341.44 99.52" stroke="#AFDFD7" stroke-width="5" stroke-miterlimit="10" stroke-linejoin="bevel"/>
<path d="M458.304 624L503.595 423.595L569.301 279.04L655.659 170.976L711.04 117.824" stroke="#AFDFD7" stroke-width="14" stroke-miterlimit="10" stroke-linejoin="bevel"/>
<path d="M514.749 399.054L245.485 315.288" stroke="#AFDFD7" stroke-width="5" stroke-miterlimit="10" stroke-linejoin="bevel"/>
<path d="M341.851 345.267L349.536 323.157L288.392 261.205" stroke="#AFDFD7" stroke-width="5" stroke-miterlimit="10" stroke-linejoin="bevel"/>
<path d="M-5.632 38.7986L73.216 179.072L96.0763 247.239" stroke="#AFDFD7" stroke-width="5" stroke-miterlimit="10" stroke-linejoin="bevel"/>
<path d="M-26.752 181.888L48.0381 137.599" stroke="#AFDFD7" stroke-width="5" stroke-miterlimit="10" stroke-linejoin="bevel"/>
<path d="M22.528 181.888L65.8831 264.446" stroke="#AFDFD7" stroke-width="5" stroke-miterlimit="10" stroke-linejoin="bevel"/>
<path d="M34.9508 450.878L118.272 516.992L141.214 624" stroke="#AFDFD7" stroke-width="9" stroke-miterlimit="10" stroke-linejoin="bevel"/>
<path d="M267.52 477.568L451.584 399.054L454.74 380.479" stroke="#AFDFD7" stroke-width="5" stroke-miterlimit="10" stroke-linejoin="bevel"/>
<path d="M256.156 440.952L355.709 399.054L366.692 352.995" stroke="#AFDFD7" stroke-width="5" stroke-miterlimit="10" stroke-linejoin="bevel"/>
<path d="M341.347 446.077L328.71 410.416" stroke="#AFDFD7" stroke-width="5" stroke-miterlimit="10" stroke-linejoin="bevel"/>
<path d="M435.165 374.295L433.302 355.811L301.001 247.239" stroke="#AFDFD7" stroke-width="5" stroke-miterlimit="10" stroke-linejoin="bevel"/>
<path d="M625.856 126.272L561.088 33.344L496.32 -59.584L392.739 10.4161L361.856 33.344L329.472 38.7986" stroke="#AFDFD7" stroke-width="5" stroke-miterlimit="10" stroke-linejoin="bevel"/>
<path d="M587.425 23.488L561.088 -26.503L656.128 -85.6306L678.656 -64.512L691.328 -37.76" stroke="#AFDFD7" stroke-width="5" stroke-miterlimit="10" stroke-linejoin="bevel"/>
<path d="M522.569 67.2106L505.472 33.344L480.832 3.68729" stroke="#AFDFD7" stroke-width="5" stroke-miterlimit="10" stroke-linejoin="bevel"/>
<path d="M460.836 15.9566L503.633 78.5267" stroke="#AFDFD7" stroke-width="5" stroke-miterlimit="10" stroke-linejoin="bevel"/>
<path d="M430.63 37.3329L473.427 99.903" stroke="#AFDFD7" stroke-width="5" stroke-miterlimit="10" stroke-linejoin="bevel"/>
<path d="M473.44 240.199L428.889 201.652" stroke="#AFDFD7" stroke-width="5" stroke-miterlimit="10" stroke-linejoin="bevel"/>
<path d="M498.173 215.476L424.781 140.197" stroke="#AFDFD7" stroke-width="5" stroke-miterlimit="10" stroke-linejoin="bevel"/>
<path d="M420.037 344.925L427.524 322.688L345.819 261.205L319.22 290.304" stroke="#AFDFD7" stroke-width="5" stroke-miterlimit="10" stroke-linejoin="bevel"/>
<path d="M251.664 24.506L324.05 11.2905" stroke="#AFDFD7" stroke-width="5" stroke-miterlimit="10" stroke-linejoin="bevel"/>
<path d="M257.796 58.6528L330.182 45.4387" stroke="#AFDFD7" stroke-width="5" stroke-miterlimit="10" stroke-linejoin="bevel"/>
<path d="M250.982 102.788L337.447 89.5725" stroke="#AFDFD7" stroke-width="5" stroke-miterlimit="10" stroke-linejoin="bevel"/>
<path d="M28.864 326.912L96.0763 296.294" stroke="#AFDFD7" stroke-width="5" stroke-miterlimit="10" stroke-linejoin="bevel"/>
<path d="M-14.08 399.054L83.776 344.925" stroke="#AFDFD7" stroke-width="5" stroke-miterlimit="10" stroke-linejoin="bevel"/>
<path d="M73.216 326.912H109.824L168.397 340.288L188.769 352.995L212.642 428.247" stroke="#AFDFD7" stroke-width="5" stroke-miterlimit="10" stroke-linejoin="bevel"/>
<path d="M101.711 363.52L125.312 352.995L137.984 321.984L140.014 303.236" stroke="#AFDFD7" stroke-width="5" stroke-miterlimit="10" stroke-linejoin="bevel"/>
<path d="M124.256 235.392L110.88 175.522H96.0763L88.0831 126.272H173.184V91.5986H202.01" stroke="#AFDFD7" stroke-width="5" stroke-miterlimit="10" stroke-linejoin="bevel"/>
<path d="M465.754 383.812L497.024 315.288L403.392 224.832L480.832 154.432L531.226 117.12" stroke="#AFDFD7" stroke-width="5" stroke-miterlimit="10" stroke-linejoin="bevel"/>
<path d="M355.709 537.439L390.016 425.316" stroke="#AFDFD7" stroke-width="5" stroke-miterlimit="10" stroke-linejoin="bevel"/>
<path d="M601.216 89.5725L691.328 35.449" stroke="#AFDFD7" stroke-width="5" stroke-miterlimit="10" stroke-linejoin="bevel"/>
<path d="M680.798 111.488L652.694 58.6528" stroke="#AFDFD7" stroke-width="5" stroke-miterlimit="10" stroke-linejoin="bevel"/>
<path d="M662.522 -19.2969L720.427 85.7751" stroke="#AFDFD7" stroke-width="5" stroke-miterlimit="10" stroke-linejoin="bevel"/>
<path d="M376.958 542.723L416.165 414.161" stroke="#AFDFD7" stroke-width="5" stroke-miterlimit="10" stroke-linejoin="bevel"/>
<path d="M403.392 224.832L364.672 187.52" stroke="#AFDFD7" stroke-width="5" stroke-miterlimit="10" stroke-linejoin="bevel"/>
</g>
<path d="M460.287 105.112C460.287 94.531 451.709 85.953 441.128 85.953C430.547 85.953 421.969 94.531 421.969 105.112C421.969 120.399 441.128 131.609 441.128 131.609C441.128 131.609 460.287 121.01 460.287 105.112Z" fill="#067A6F"/>
<path d="M443.459 118.378C450.793 117.093 455.696 110.105 454.411 102.771C453.126 95.437 446.139 90.5333 438.805 91.8185C431.47 93.1036 426.567 100.091 427.852 107.425C429.137 114.759 436.124 119.663 443.459 118.378Z" fill="#FAFEFD"/>
<path d="M448.984 103.79C448.956 103.677 448.881 103.582 448.778 103.527C448.676 103.472 448.555 103.463 448.446 103.502C447.486 103.839 446.004 104.057 444.337 104.057C443.932 104.057 443.541 104.041 443.163 104.017C442.967 104.901 442.654 105.714 442.255 106.429C442.274 106.428 442.293 106.425 442.313 106.425C442.831 106.425 443.251 106.382 443.251 106.731C443.251 107.08 442.831 107.689 442.313 107.689C442.011 107.689 441.746 107.591 441.574 107.442C441.056 108.085 440.452 108.591 439.786 108.926C440.537 111.453 442.292 113.226 444.337 113.226C447.066 113.226 449.278 110.071 449.278 106.18C449.278 105.339 449.173 104.536 448.984 103.79ZM446.306 111.168C446.297 111.205 446.27 111.235 446.233 111.247C446.197 111.259 446.157 111.252 446.127 111.227C445.742 110.904 445.087 110.689 444.336 110.689C443.585 110.689 442.93 110.904 442.545 111.227C442.516 111.251 442.476 111.259 442.439 111.247C442.403 111.235 442.375 111.205 442.366 111.168C442.334 111.032 442.315 110.893 442.315 110.747C442.315 109.631 443.22 108.726 444.336 108.726C445.452 108.726 446.356 109.631 446.356 110.747C446.357 110.892 446.338 111.032 446.306 111.168ZM446.362 107.688C445.844 107.688 445.424 107.079 445.424 106.73C445.424 106.381 445.844 106.424 446.362 106.424C446.88 106.424 447.3 106.707 447.3 107.056C447.299 107.405 446.88 107.688 446.362 107.688Z" fill="#067A6F"/>
<path d="M442.86 101.798C442.86 100.959 442.755 100.155 442.566 99.41C442.538 99.297 442.463 99.202 442.36 99.147C442.3 99.115 442.232 99.098 442.165 99.098C442.119 99.098 442.072 99.106 442.028 99.121C441.068 99.458 439.586 99.676 437.919 99.676C436.252 99.676 434.771 99.459 433.81 99.121C433.766 99.105 433.72 99.098 433.673 99.098C433.605 99.098 433.538 99.115 433.477 99.147C433.375 99.202 433.3 99.297 433.271 99.41C433.082 100.156 432.977 100.959 432.977 101.798C432.977 105.69 435.189 108.844 437.918 108.844C440.648 108.844 442.86 105.69 442.86 101.798ZM434.957 102.674C434.957 102.325 435.377 102.042 435.895 102.042C436.413 102.042 436.833 102.651 436.833 103C436.833 103.349 436.413 103.306 435.895 103.306C435.376 103.306 434.957 103.023 434.957 102.674ZM437.919 107.512C436.803 107.512 435.898 106.607 435.898 105.492C435.898 105.347 435.918 105.207 435.949 105.071C435.958 105.034 435.985 105.004 436.022 104.992C436.058 104.98 436.098 104.988 436.128 105.012C436.513 105.335 437.168 105.55 437.919 105.55C438.67 105.55 439.325 105.335 439.71 105.012C439.739 104.987 439.779 104.98 439.816 104.992C439.852 105.004 439.88 105.034 439.889 105.071C439.921 105.207 439.941 105.346 439.941 105.492C439.939 106.608 439.035 107.512 437.919 107.512ZM439.006 103C439.006 102.651 439.426 102.042 439.944 102.042C440.462 102.042 440.882 102.325 440.882 102.674C440.882 103.023 440.462 103.306 439.944 103.306C439.426 103.306 439.006 103.349 439.006 103Z" fill="#067A6F"/>
<path d="M157.197 51.972C157.197 41.391 148.619 32.813 138.038 32.813C127.457 32.813 118.879 41.39 118.879 51.972C118.879 67.259 138.038 78.469 138.038 78.469C138.038 78.469 157.197 67.87 157.197 51.972Z" fill="#067A6F"/>
<path d="M140.188 65.2819C147.538 64.0944 152.534 57.1729 151.346 49.8223C150.159 42.4717 143.237 37.4756 135.887 38.6631C128.537 39.8507 123.542 46.7722 124.729 54.1228C125.917 61.4733 132.838 66.4695 140.188 65.2819Z" fill="#FAFEFD"/>
<path d="M145.894 50.65C145.866 50.537 145.791 50.442 145.688 50.387C145.586 50.332 145.465 50.323 145.356 50.362C144.396 50.699 142.914 50.917 141.247 50.917C140.842 50.917 140.451 50.902 140.073 50.877C139.877 51.761 139.564 52.574 139.165 53.289C139.184 53.288 139.203 53.285 139.223 53.285C139.741 53.285 140.161 53.242 140.161 53.591C140.161 53.94 139.741 54.549 139.223 54.549C138.921 54.549 138.656 54.451 138.484 54.302C137.966 54.945 137.362 55.451 136.696 55.786C137.447 58.313 139.202 60.086 141.248 60.086C143.977 60.086 146.189 56.931 146.189 53.04C146.188 52.199 146.083 51.396 145.894 50.65ZM143.216 58.028C143.207 58.065 143.18 58.095 143.143 58.107C143.107 58.119 143.067 58.112 143.037 58.087C142.652 57.764 141.997 57.549 141.246 57.549C140.495 57.549 139.84 57.764 139.455 58.087C139.426 58.111 139.386 58.119 139.349 58.107C139.313 58.095 139.285 58.065 139.276 58.028C139.244 57.892 139.225 57.753 139.225 57.607C139.225 56.491 140.13 55.586 141.246 55.586C142.362 55.586 143.267 56.491 143.267 57.607C143.268 57.752 143.248 57.892 143.216 58.028ZM143.272 54.548C142.754 54.548 142.334 53.939 142.334 53.59C142.334 53.241 142.754 53.284 143.272 53.284C143.79 53.284 144.21 53.567 144.21 53.916C144.209 54.265 143.79 54.548 143.272 54.548Z" fill="#067A6F"/>
<path d="M139.77 48.658C139.77 47.819 139.665 47.015 139.476 46.27C139.448 46.157 139.373 46.062 139.27 46.007C139.21 45.975 139.142 45.958 139.075 45.958C139.029 45.958 138.982 45.966 138.938 45.981C137.978 46.318 136.496 46.536 134.829 46.536C133.162 46.536 131.681 46.319 130.72 45.981C130.676 45.965 130.63 45.958 130.583 45.958C130.515 45.958 130.448 45.975 130.387 46.007C130.285 46.062 130.21 46.157 130.181 46.27C129.992 47.016 129.887 47.819 129.887 48.658C129.887 52.55 132.099 55.704 134.828 55.704C137.558 55.704 139.77 52.55 139.77 48.658ZM131.867 49.534C131.867 49.185 132.287 48.902 132.805 48.902C133.323 48.902 133.743 49.511 133.743 49.86C133.743 50.209 133.323 50.166 132.805 50.166C132.286 50.166 131.867 49.883 131.867 49.534ZM134.829 54.372C133.713 54.372 132.809 53.467 132.809 52.352C132.809 52.207 132.829 52.067 132.861 51.931C132.87 51.894 132.897 51.864 132.934 51.852C132.97 51.84 133.01 51.848 133.04 51.872C133.425 52.195 134.08 52.41 134.831 52.41C135.582 52.41 136.237 52.195 136.622 51.872C136.651 51.847 136.691 51.84 136.728 51.852C136.764 51.864 136.792 51.894 136.801 51.931C136.833 52.066 136.852 52.206 136.852 52.352C136.85 53.468 135.945 54.372 134.829 54.372ZM135.916 49.86C135.916 49.511 136.336 48.902 136.854 48.902C137.372 48.902 137.792 49.185 137.792 49.534C137.792 49.883 137.372 50.166 136.854 50.166C136.336 50.166 135.916 50.209 135.916 49.86Z" fill="#067A6F"/>
<path d="M473.769 313.987C473.769 303.406 465.191 294.828 454.61 294.828C444.029 294.828 435.451 303.406 435.451 313.987C435.451 329.274 454.61 340.484 454.61 340.484C454.61 340.484 473.769 329.885 473.769 313.987Z" fill="#067A6F"/>
<path d="M454.609 327.468C462.054 327.468 468.09 321.432 468.09 313.987C468.09 306.542 462.054 300.506 454.609 300.506C447.164 300.506 441.128 306.542 441.128 313.987C441.128 321.432 447.164 327.468 454.609 327.468Z" fill="#FAFEFD"/>
<path d="M464.628 313.987C464.628 313.284 464.013 312.669 463.31 312.669H458.479L454.087 305.642H452.33L454.526 312.669H449.695L448.377 310.912H447.059L447.937 313.986L447.059 317.06H448.377L449.695 315.303H454.526L452.33 322.33H454.087L458.479 315.303H463.31C464.013 315.305 464.628 314.69 464.628 313.987Z" fill="#067A6F"/>
<path d="M160.001 400.214C160.001 389.633 151.423 381.055 140.842 381.055C130.261 381.055 121.683 389.633 121.683 400.214C121.683 415.501 140.842 426.711 140.842 426.711C140.842 426.711 160.001 416.112 160.001 400.214Z" fill="#067A6F"/>
<path d="M140.842 413.695C148.287 413.695 154.323 407.659 154.323 400.214C154.323 392.769 148.287 386.733 140.842 386.733C133.397 386.733 127.361 392.769 127.361 400.214C127.361 407.659 133.397 413.695 140.842 413.695Z" fill="#FAFEFD"/>
<path d="M140.842 408.327L139.767 407.252C135.775 403.72 133.164 401.34 133.164 398.423C133.164 396.043 135.007 394.2 137.387 394.2C138.692 394.2 139.997 394.814 140.842 395.812C141.687 394.814 142.992 394.2 144.297 394.2C146.677 394.2 148.52 396.043 148.52 398.423C148.52 401.341 145.91 403.721 141.917 407.252L140.842 408.327Z" fill="#067A6F"/>
<path d="M240.328 182.318C240.328 171.737 231.75 163.159 221.169 163.159C210.588 163.159 202.01 171.737 202.01 182.318C202.01 197.605 221.169 208.815 221.169 208.815C221.169 208.815 240.328 198.216 240.328 182.318Z" fill="#067A6F"/>
<path d="M230.701 191.851C235.966 186.586 235.966 178.05 230.701 172.785C225.436 167.52 216.899 167.52 211.634 172.785C206.369 178.05 206.369 186.586 211.634 191.851C216.899 197.116 225.436 197.116 230.701 191.851Z" fill="#FAFEFD"/>
<path d="M221.169 174.412C216.777 174.412 213.263 177.926 213.263 182.318C213.263 186.71 216.777 190.223 221.169 190.223C221.872 190.223 222.486 189.608 222.486 188.905C222.486 188.554 222.398 188.29 222.135 188.027C221.959 187.763 221.784 187.5 221.784 187.149C221.784 186.446 222.399 185.831 223.102 185.831H224.683C227.143 185.831 229.075 183.899 229.075 181.439C229.075 177.574 225.561 174.412 221.169 174.412ZM216.338 182.318C215.635 182.318 215.02 181.703 215.02 181C215.02 180.297 215.635 179.682 216.338 179.682C217.041 179.682 217.655 180.297 217.655 181C217.655 181.703 217.041 182.318 216.338 182.318ZM218.973 178.804C218.27 178.804 217.655 178.189 217.655 177.486C217.655 176.783 218.27 176.168 218.973 176.168C219.676 176.168 220.291 176.783 220.291 177.486C220.291 178.189 219.676 178.804 218.973 178.804ZM223.365 178.804C222.662 178.804 222.047 178.189 222.047 177.486C222.047 176.783 222.662 176.168 223.365 176.168C224.068 176.168 224.683 176.783 224.683 177.486C224.683 178.189 224.068 178.804 223.365 178.804ZM226 182.318C225.297 182.318 224.682 181.703 224.682 181C224.682 180.297 225.297 179.682 226 179.682C226.703 179.682 227.317 180.297 227.317 181C227.317 181.703 226.703 182.318 226 182.318Z" fill="#067A6F"/>
<path d="M272.969 268.331C272.969 257.75 264.391 249.172 253.81 249.172C243.229 249.172 234.651 257.75 234.651 268.331C234.651 283.618 253.81 294.828 253.81 294.828C253.81 294.828 272.969 284.229 272.969 268.331Z" fill="#067A6F"/>
<path d="M253.81 281.813C261.256 281.813 267.292 275.777 267.292 268.331C267.292 260.885 261.256 254.849 253.81 254.849C246.364 254.849 240.328 260.885 240.328 268.331C240.328 275.777 246.364 281.813 253.81 281.813Z" fill="#FAFEFD"/>
<path d="M253.81 273.402L259.238 276.676L257.802 270.501L262.594 266.349L256.277 265.807L253.81 259.986L251.343 265.807L245.026 266.349L249.818 270.501L248.382 276.676L253.81 273.402Z" fill="#067A6F"/>
<path d="M451.95 390.531C451.95 379.95 443.372 371.372 432.791 371.372C422.21 371.372 413.632 379.95 413.632 390.531C413.632 405.818 432.791 417.028 432.791 417.028C432.791 417.028 451.95 406.429 451.95 390.531Z" fill="#067A6F"/>
<path d="M432.791 404.013C440.237 404.013 446.273 397.977 446.273 390.531C446.273 383.085 440.237 377.049 432.791 377.049C425.345 377.049 419.309 383.085 419.309 390.531C419.309 397.977 425.345 404.013 432.791 404.013Z" fill="#FAFEFD"/>
<path d="M432.791 395.602L438.219 398.876L436.783 392.702L441.575 388.55L435.258 388.008L432.791 382.187L430.324 388.008L424.007 388.55L428.799 392.702L427.363 398.876L432.791 395.602Z" fill="#067A6F"/>
</g>
<defs>
<clipPath id="clip0_1162_2471">
<rect width="704" height="704" fill="white" transform="translate(0 -80)"/>
</clipPath>
</defs>
</svg>
