<svg
  width="156"
  height="18"
  viewBox="0 0 156 18"
  fill="none"
  xmlns="http://www.w3.org/2000/svg"
>
<path
    d="M17.8282 12.6768C17.8282 13.4113 17.6872 14.1045 17.4052 14.7565C17.1315 15.4003 16.7499 15.9656 16.2606 16.4525C15.7795 16.9312 15.2114 17.3109 14.5561 17.5915C13.9092 17.8638 13.2166 18 12.4785 18C11.8149 18 11.1763 17.8845 10.5625 17.6534C9.95706 17.4223 9.40965 17.0839 8.9203 16.6382C8.43095 17.0839 7.87939 17.4223 7.26563 17.6534C6.65186 17.8845 6.01322 18 5.34969 18C4.61152 18 3.91481 17.8638 3.25958 17.5915C2.61264 17.3109 2.04449 16.9312 1.55514 16.4525C1.07409 15.9656 0.692557 15.4003 0.410558 14.7565C0.136853 14.1045 0 13.4113 0 12.6768V0H3.57061V12.6768C3.57061 12.9243 3.61623 13.1596 3.70746 13.3824C3.7987 13.597 3.92311 13.7868 4.0807 13.9519C4.24658 14.1087 4.43734 14.2325 4.65299 14.3232C4.86863 14.414 5.10087 14.4594 5.34969 14.4594C5.59851 14.4594 5.83075 14.414 6.0464 14.3232C6.26204 14.2325 6.44866 14.1087 6.60625 13.9519C6.77213 13.7868 6.90069 13.597 6.99192 13.3824C7.08316 13.1596 7.12878 12.9243 7.12878 12.6768V0H10.6994V12.6768C10.6994 12.9243 10.745 13.1596 10.8362 13.3824C10.9275 13.597 11.0519 13.7868 11.2095 13.9519C11.3754 14.1087 11.5661 14.2325 11.7818 14.3232C11.9974 14.414 12.2296 14.4594 12.4785 14.4594C12.7273 14.4594 12.9595 14.414 13.1752 14.3232C13.3908 14.2325 13.5774 14.1087 13.735 13.9519C13.9009 13.7868 14.0295 13.597 14.1207 13.3824C14.2202 13.1596 14.27 12.9243 14.27 12.6768V0H17.8282V12.6768Z"
    fill="#0D3D38"
  />
<path
    d="M30.7615 10.6589V7.10591C30.7615 6.61898 30.6661 6.16094 30.4753 5.73177C30.2929 5.29436 30.0399 4.91472 29.7164 4.59285C29.3929 4.27098 29.0114 4.01926 28.5718 3.83769C28.1405 3.64787 27.6802 3.55296 27.1909 3.55296C26.7015 3.55296 26.237 3.64787 25.7975 3.83769C25.3662 4.01926 24.9888 4.27098 24.6653 4.59285C24.3418 4.91472 24.0847 5.29436 23.894 5.73177C23.7115 6.16094 23.6203 6.61898 23.6203 7.10591V10.6589H30.7615ZM34.3321 17.7524H30.7615V14.1994H23.6203V17.7524H20.0621V7.10591C20.0621 6.1238 20.2487 5.20358 20.6219 4.34525C20.9952 3.47868 21.5011 2.72352 22.1398 2.07978C22.7867 1.43604 23.5415 0.928473 24.404 0.557084C25.2749 0.185695 26.2039 0 27.1909 0C28.1779 0 29.1027 0.185695 29.9652 0.557084C30.8361 0.928473 31.595 1.43604 32.242 2.07978C32.8889 2.72352 33.399 3.47868 33.7722 4.34525C34.1455 5.20358 34.3321 6.1238 34.3321 7.10591V17.7524Z"
    fill="#0D3D38"
  />
<path
    d="M50.9355 17.7524H47.1161L40.2362 6.06602V17.7524H36.6655V0H40.485L47.3649 11.6988V0H50.9355V17.7524Z"
    fill="#0D3D38"
  />
<path
    d="M67.7878 8.8762C67.7878 9.69326 67.68 10.4814 67.4643 11.2407C67.257 11.9917 66.9584 12.6974 66.5686 13.3576C66.1788 14.0096 65.7143 14.608 65.1752 15.1527C64.636 15.6891 64.0347 16.1513 63.3712 16.5392C62.7077 16.9271 61.9944 17.2283 61.2313 17.4429C60.4766 17.6492 59.6886 17.7524 58.8675 17.7524H53.4929V0H58.8675C59.6886 0 60.4766 0.10729 61.2313 0.321871C61.9944 0.528198 62.7077 0.825309 63.3712 1.2132C64.0347 1.6011 64.636 2.0674 65.1752 2.6121C65.7143 3.14856 66.1788 3.74691 66.5686 4.40715C66.9584 5.05915 67.257 5.76479 67.4643 6.52407C67.68 7.2751 67.7878 8.05915 67.7878 8.8762ZM64.2172 8.8762C64.2172 8.14168 64.0762 7.45254 63.7942 6.8088C63.5205 6.16506 63.139 5.60385 62.6496 5.12517C62.1686 4.63824 61.6004 4.25447 60.9452 3.97387C60.2982 3.69326 59.6057 3.55296 58.8675 3.55296H57.0884V14.1994H58.8675C59.6057 14.1994 60.2982 14.0633 60.9452 13.7909C61.6004 13.5103 62.1686 13.1307 62.6496 12.652C63.139 12.1651 63.5205 11.5997 63.7942 10.956C64.0762 10.304 64.2172 9.61073 64.2172 8.8762Z"
    fill="#0D3D38"
  />
<path
    d="M81.6293 17.7524H69.3997V0H81.6293V3.55296H72.9703V7.10591H78.8301V10.6589H72.9703V14.1994H81.6293V17.7524Z"
    fill="#0D3D38"
  />
<path
    d="M86.9362 3.55296V10.6589H90.5068C90.9962 10.6589 91.4565 10.5681 91.8878 10.3865C92.3191 10.1967 92.6965 9.94085 93.0199 9.61898C93.3434 9.29711 93.5964 8.9216 93.7789 8.49243C93.9696 8.05502 94.065 7.59285 94.065 7.10591C94.065 6.61898 93.9696 6.16094 93.7789 5.73177C93.5964 5.29436 93.3434 4.91472 93.0199 4.59285C92.6965 4.27098 92.3191 4.01926 91.8878 3.83769C91.4565 3.64787 90.9962 3.55296 90.5068 3.55296H86.9362ZM86.9362 17.7524H83.3656V0H90.5068C91.1621 0 91.7924 0.0866575 92.3979 0.259972C93.0034 0.425034 93.5674 0.664374 94.0899 0.977992C94.6207 1.28336 95.1018 1.65475 95.5331 2.09216C95.9726 2.52132 96.3459 3 96.6528 3.5282C96.9679 4.0564 97.2085 4.62173 97.3743 5.22421C97.5485 5.82668 97.6356 6.45392 97.6356 7.10591C97.6356 7.71664 97.5568 8.31087 97.3992 8.88858C97.2499 9.4663 97.0301 10.0151 96.7398 10.5351C96.4578 11.055 96.1095 11.5337 95.6948 11.9711C95.2801 12.4085 94.8156 12.7882 94.3014 13.11L96.2795 17.7524H92.485L90.9298 14.1747L86.9362 14.1994V17.7524Z"
    fill="#0D3D38"
  />
<path
    d="M111.714 17.7524H99.2226V0H102.793V14.1994H111.714V17.7524Z"
    fill="#0D3D38"
  />
<path
    d="M126.264 10.6589C126.264 11.641 126.078 12.5653 125.704 13.4319C125.331 14.2902 124.821 15.0413 124.174 15.685C123.527 16.3205 122.768 16.8239 121.897 17.1953C121.035 17.5667 120.11 17.7524 119.123 17.7524C118.136 17.7524 117.207 17.5667 116.336 17.1953C115.474 16.8239 114.719 16.3205 114.072 15.685C113.433 15.0413 112.927 14.2902 112.554 13.4319C112.181 12.5653 111.994 11.641 111.994 10.6589V0H115.552V10.6589C115.552 11.1458 115.644 11.6039 115.826 12.033C116.017 12.4622 116.274 12.8377 116.597 13.1596C116.921 13.4814 117.298 13.7373 117.73 13.9271C118.169 14.1087 118.634 14.1994 119.123 14.1994C119.612 14.1994 120.073 14.1087 120.504 13.9271C120.944 13.7373 121.325 13.4814 121.649 13.1596C121.972 12.8377 122.225 12.4622 122.407 12.033C122.598 11.6039 122.694 11.1458 122.694 10.6589V0H126.264V10.6589Z"
    fill="#0D3D38"
  />
<path
    d="M127.553 5.32325C127.553 4.58872 127.694 3.89959 127.976 3.25585C128.258 2.6121 128.639 2.05089 129.12 1.57221C129.61 1.08528 130.178 0.701513 130.825 0.420908C131.472 0.140303 132.164 0 132.902 0H141.089V3.55296H132.902C132.653 3.55296 132.421 3.59835 132.206 3.68913C131.99 3.77992 131.799 3.90784 131.633 4.0729C131.476 4.22971 131.351 4.41541 131.26 4.62999C131.169 4.84457 131.123 5.07565 131.123 5.32325C131.123 5.57084 131.169 5.80605 131.26 6.02889C131.351 6.24347 131.476 6.43329 131.633 6.59835C131.799 6.75516 131.99 6.87895 132.206 6.96974C132.421 7.06052 132.653 7.10591 132.902 7.10591H136.473C137.211 7.10591 137.904 7.24622 138.551 7.52682C139.206 7.79917 139.774 8.17882 140.255 8.66575C140.744 9.14443 141.126 9.70977 141.4 10.3618C141.682 11.0055 141.823 11.6946 141.823 12.4292C141.823 13.1637 141.682 13.8528 141.4 14.4966C141.126 15.1403 140.744 15.7056 140.255 16.1926C139.774 16.6713 139.206 17.0509 138.551 17.3315C137.904 17.6121 137.211 17.7524 136.473 17.7524H128.548V14.1994H136.473C136.722 14.1994 136.954 14.1541 137.17 14.0633C137.385 13.9725 137.572 13.8487 137.729 13.6919C137.895 13.5268 138.024 13.337 138.115 13.1224C138.206 12.9078 138.252 12.6768 138.252 12.4292C138.252 12.1816 138.206 11.9505 138.115 11.7359C138.024 11.5213 137.895 11.3356 137.729 11.1788C137.572 11.0138 137.385 10.8858 137.17 10.795C136.954 10.7043 136.722 10.6589 136.473 10.6589H132.902C132.164 10.6589 131.472 10.5186 130.825 10.238C130.178 9.95736 129.61 9.57772 129.12 9.09904C128.639 8.6121 128.258 8.04677 127.976 7.40303C127.694 6.75103 127.553 6.05777 127.553 5.32325Z"
    fill="#0D3D38"
  />
<path
    d="M150.65 17.7524H147.092V3.55296H141.73V0H156V3.55296H150.65V17.7524Z"
    fill="#0D3D38"
  />
</svg>
