<svg width="195" height="195" viewBox="0 0 195 195" fill="none" xmlns="http://www.w3.org/2000/svg">
<path d="M97.5001 1.08772e-05C60.2286 1.08772e-05 29.3047 30.2959 30.0119 67.665C30.2683 81.6518 36.3682 92.6959 41.9554 103.332C44.0948 107.418 97.3321 194.911 97.3321 194.911V195L97.341 194.938L97.3586 195V194.911L155.096 102.933C158.694 96.7023 162.106 87.2359 162.106 87.2359C165.158 77.1271 165.807 66.4422 164 56.0369C162.193 45.6316 157.981 35.7951 151.701 27.3154C145.421 18.8356 137.248 11.9482 127.836 7.20488C118.424 2.46152 108.034 -0.00597843 97.5001 1.08772e-05ZM97.4912 97.6684C92.9671 97.6696 88.4871 96.7769 84.3072 95.0413C80.1274 93.3057 76.3296 90.7613 73.131 87.5535C69.9324 84.3456 67.3956 80.5373 65.6656 76.346C63.9357 72.1548 63.0464 67.6628 63.0488 63.1268C63.047 56.2923 65.067 49.6107 68.8533 43.9274C72.6395 38.244 78.0219 33.8142 84.3195 31.1984C90.6172 28.5825 97.5472 27.898 104.233 29.2316C110.919 30.5652 117.06 33.8569 121.879 38.6902C126.699 43.5236 129.98 49.6816 131.308 56.3851C132.637 63.0887 131.952 70.0366 129.342 76.3501C126.731 82.6636 122.311 88.0589 116.642 91.8536C110.973 95.6483 104.308 97.6719 97.4912 97.6684Z" fill="#FAFEFD"/>
</svg>
