<svg width="195" height="195" viewBox="0 0 195 195" fill="none" xmlns="http://www.w3.org/2000/svg">
<g clip-path="url(#clip0_1158_1614)">
<path d="M45.5 0L32.5 71.5C30.5968 81.965 55.6595 86.853 55.25 97.5L52 182C51.5008 194.991 65 195 65 195C65 195 78.4992 194.991 78 182L74.75 97.5C74.3418 86.8712 97.2842 82.1496 97.5 71.5L84.5 0H78L81.25 52L71.5 58.5L68.25 0H61.75L58.5 58.5L48.75 52L52 0H45.5ZM156 0C146.427 0 130.465 8.5137 124.084 21.2771C118.765 30.8503 117 52.2366 117 65V97.5C117 108.137 131.182 110.5 136.5 110.5L130 182C128.823 194.947 143 195 143 195C143 195 156 195 156 182V0Z" fill="#FAFEFD"/>
</g>
<defs>
<clipPath id="clip0_1158_1614">
<rect width="195" height="195" fill="white"/>
</clipPath>
</defs>
</svg>
