<svg width="195" height="195" viewBox="0 0 195 195" fill="none" xmlns="http://www.w3.org/2000/svg">
<g clip-path="url(#clip0_1158_1613)">
<path d="M40.95 62.4C18.445 62.4 0 80.7885 0 103.233C0 111.93 2.7768 120.013 7.47825 126.656L35.9541 175.882C39.9418 181.093 42.5939 180.104 45.9108 175.609L77.3175 122.16C77.9513 121.009 78.4485 119.789 78.8833 118.541C80.8764 113.683 81.9011 108.483 81.9 103.233C81.9 80.7885 63.4608 62.4 40.95 62.4ZM40.95 81.5334C53.0712 81.5334 62.712 91.1489 62.712 103.235C62.712 115.321 53.0712 124.933 40.95 124.933C28.8307 124.933 19.188 115.319 19.188 103.235C19.188 91.1489 28.8307 81.5334 40.95 81.5334Z" fill="#FAFEFD"/>
<path d="M171.113 0C157.985 0 147.225 10.7269 147.225 23.8212C147.225 28.8932 148.844 33.6082 151.587 37.4829L168.199 66.1986C170.526 69.2367 172.072 68.6595 174.006 66.0387L192.327 34.8582C192.697 34.1894 192.988 33.4776 193.239 32.7483C194.402 29.9158 195 26.8832 195 23.8212C195 10.725 184.244 0 171.113 0ZM171.113 11.1618C178.183 11.1618 183.807 16.77 183.807 23.8212C183.807 30.8704 178.183 36.4767 171.113 36.4767C164.044 36.4767 158.418 30.8704 158.418 23.8212C158.418 16.77 164.044 11.1618 171.113 11.1618Z" fill="#FAFEFD"/>
<path fill-rule="evenodd" clip-rule="evenodd" d="M172.008 72.9534C167.626 73.0509 163.233 73.2361 158.831 73.5618L159.51 84.3492C163.738 84.043 167.973 83.846 172.21 83.7583L172.008 72.9534ZM148.656 74.5524C141.89 75.3928 135.065 76.5901 128.318 78.5148L130.859 88.9687C136.989 87.2215 143.343 86.0925 149.795 85.291L148.656 74.5524ZM118.215 82.134C116.193 83.0263 114.236 84.0577 112.357 85.2208L112.349 85.2306L112.338 85.2345C109.656 86.9232 106.831 89.0662 104.524 92.1804C102.853 94.4365 101.486 97.2894 101.166 100.663L111.101 101.765C111.175 100.973 111.581 99.9277 112.31 98.9449H112.314V98.941C113.49 97.3498 115.253 95.9049 117.349 94.5828L117.357 94.5789C118.851 93.6567 120.407 92.8384 122.013 92.1297L118.215 82.134ZM113.1 106.577L106.659 114.835C108.186 116.232 109.787 117.304 111.333 118.201L111.353 118.211L111.372 118.223C116.505 121.142 121.797 122.79 126.703 124.353L129.523 113.983C124.619 112.419 119.995 110.91 116.033 108.66C114.898 108.001 113.903 107.312 113.1 106.577ZM139.103 116.901L136.35 127.288L137.652 127.694L139.251 128.205C144.544 129.927 149.614 131.765 154.146 134.31L158.744 124.716C153.264 121.637 147.576 119.625 142.095 117.842L142.079 117.838L140.437 117.314L139.103 116.901ZM168.094 131.916L161.029 139.56C162.698 141.367 163.948 143.541 164.557 145.788L164.561 145.8L164.564 145.817C165.29 148.44 165.292 151.525 164.724 154.641L174.521 156.731C175.321 152.332 175.449 147.502 174.135 142.734C172.99 138.518 170.806 134.856 168.094 131.916ZM161.304 161.154C160.224 162.294 159.031 163.321 157.743 164.219H157.739C154.229 166.688 150.158 168.548 145.833 170.147L149.058 180.373C153.789 178.624 158.646 176.479 163.186 173.285L163.197 173.275L163.203 173.271C165.068 171.966 166.792 170.471 168.349 168.811L161.304 161.154ZM136.656 173.027C130.391 174.712 123.987 175.995 117.505 177.083L119.034 187.767C125.705 186.646 132.403 185.307 139.06 183.516L136.656 173.027ZM107.753 178.558C101.228 179.449 94.6686 180.176 88.0893 180.796L88.9512 191.564C95.6319 190.936 102.324 190.197 109.007 189.283L107.753 178.558ZM78.2009 181.644C71.6079 182.167 64.9993 182.592 58.385 182.951L58.8842 193.746C65.5629 193.385 72.2475 192.954 78.9302 192.424L78.2009 181.644ZM48.4458 183.438C44.4814 183.624 40.5073 183.776 36.5235 183.916L36.8511 194.721C40.8599 194.583 44.8678 194.423 48.8748 194.241L48.4458 183.438Z" fill="#FAFEFD"/>
</g>
<defs>
<clipPath id="clip0_1158_1613">
<rect width="195" height="195" fill="white"/>
</clipPath>
</defs>
</svg>
