<svg
  width="16"
  height="16"
  viewBox="0 0 16 16"
  fill="none"
  xmlns="http://www.w3.org/2000/svg"
>
<g clip-path="url(#clip0_1174_344)">
<path
      d="M12.7998 2.93335L1.93315 7.13335C1.19982 7.40002 1.19982 7.86669 1.79982 8.00002L4.53315 8.86669L5.59982 12.0667C5.73315 12.4 5.66649 12.5334 5.99982 12.5334C6.26649 12.5334 6.39982 12.4 6.53315 12.2667C6.59982 12.2 7.19982 11.6 7.86649 10.9334L10.6665 13C11.1998 13.2667 11.5332 13.1334 11.6665 12.5334L13.5332 3.80002C13.7332 3.06669 13.2665 2.66669 12.7998 2.93335ZM11.3998 4.93335L6.19982 9.66669L5.99982 11.8667L4.93315 8.66669L11.0665 4.80002C11.3332 4.60002 11.5998 4.73335 11.3998 4.93335Z"
      fill="#F1FCFA"
    />
</g>
<defs>
<clipPath id="clip0_1174_344">
<rect width="16" height="16" fill="white" />
</clipPath>
</defs>
</svg>
