<svg
  width="173"
  height="21"
  viewBox="0 0 173 21"
  fill="none"
  xmlns="http://www.w3.org/2000/svg"
>
<path
    d="M20.2734 14.3945C20.2734 15.2057 20.1185 15.9714 19.8086 16.6914C19.5078 17.4023 19.0885 18.0267 18.5508 18.5645C18.0221 19.0931 17.3978 19.5124 16.6777 19.8223C15.9668 20.123 15.2057 20.2734 14.3945 20.2734C13.6654 20.2734 12.9635 20.1458 12.2891 19.8906C11.6237 19.6354 11.0221 19.2617 10.4844 18.7695C9.94661 19.2617 9.3405 19.6354 8.66602 19.8906C7.99154 20.1458 7.28971 20.2734 6.56055 20.2734C5.74935 20.2734 4.98372 20.123 4.26367 19.8223C3.55273 19.5124 2.92839 19.0931 2.39062 18.5645C1.86198 18.0267 1.44271 17.4023 1.13281 16.6914C0.832031 15.9714 0.681641 15.2057 0.681641 14.3945V0.394531H4.60547V14.3945C4.60547 14.668 4.6556 14.9277 4.75586 15.1738C4.85612 15.4108 4.99284 15.6204 5.16602 15.8027C5.34831 15.9759 5.55794 16.1126 5.79492 16.2129C6.0319 16.3132 6.28711 16.3633 6.56055 16.3633C6.83398 16.3633 7.08919 16.3132 7.32617 16.2129C7.56315 16.1126 7.76823 15.9759 7.94141 15.8027C8.1237 15.6204 8.26497 15.4108 8.36523 15.1738C8.46549 14.9277 8.51562 14.668 8.51562 14.3945V0.394531H12.4395V14.3945C12.4395 14.668 12.4896 14.9277 12.5898 15.1738C12.6901 15.4108 12.8268 15.6204 13 15.8027C13.1823 15.9759 13.3919 16.1126 13.6289 16.2129C13.8659 16.3132 14.1211 16.3633 14.3945 16.3633C14.668 16.3633 14.9232 16.3132 15.1602 16.2129C15.3971 16.1126 15.6022 15.9759 15.7754 15.8027C15.9577 15.6204 16.099 15.4108 16.1992 15.1738C16.3086 14.9277 16.3633 14.668 16.3633 14.3945V0.394531H20.2734V14.3945Z"
    fill="#0D3D38"
  />
<path
    d="M34.4862 12.166V8.24219C34.4862 7.70443 34.3814 7.19857 34.1717 6.72461C33.9712 6.24154 33.6932 5.82227 33.3377 5.4668C32.9823 5.11133 32.563 4.83333 32.0799 4.63281C31.606 4.42318 31.1001 4.31836 30.5623 4.31836C30.0246 4.31836 29.5142 4.42318 29.0311 4.63281C28.5571 4.83333 28.1424 5.11133 27.787 5.4668C27.4315 5.82227 27.1489 6.24154 26.9393 6.72461C26.7388 7.19857 26.6385 7.70443 26.6385 8.24219V12.166H34.4862ZM38.41 20H34.4862V16.0762H26.6385V20H22.7284V8.24219C22.7284 7.15755 22.9334 6.14128 23.3436 5.19336C23.7537 4.23633 24.3097 3.40234 25.0116 2.69141C25.7225 1.98047 26.5519 1.41992 27.4998 1.00977C28.4569 0.599609 29.4777 0.394531 30.5623 0.394531C31.647 0.394531 32.6633 0.599609 33.6112 1.00977C34.5682 1.41992 35.4022 1.98047 36.1131 2.69141C36.8241 3.40234 37.3846 4.23633 37.7948 5.19336C38.2049 6.14128 38.41 7.15755 38.41 8.24219V20Z"
    fill="#0D3D38"
  />
<path
    d="M56.6559 20H52.4587L44.8981 7.09375V20H40.9743V0.394531H45.1716L52.7321 13.3145V0.394531H56.6559V20Z"
    fill="#0D3D38"
  />
<path
    d="M75.1753 10.1973C75.1753 11.0996 75.0568 11.9701 74.8198 12.8086C74.592 13.638 74.2638 14.4173 73.8355 15.1465C73.4071 15.8665 72.8967 16.5273 72.3042 17.1289C71.7118 17.7214 71.051 18.2318 70.3218 18.6602C69.5926 19.0885 68.8088 19.4212 67.9702 19.6582C67.1408 19.8861 66.2749 20 65.3726 20H59.4663V0.394531H65.3726C66.2749 0.394531 67.1408 0.513021 67.9702 0.75C68.8088 0.977865 69.5926 1.30599 70.3218 1.73438C71.051 2.16276 71.7118 2.67773 72.3042 3.2793C72.8967 3.87174 73.4071 4.53255 73.8355 5.26172C74.2638 5.98177 74.592 6.76107 74.8198 7.59961C75.0568 8.42904 75.1753 9.29492 75.1753 10.1973ZM71.2515 10.1973C71.2515 9.38607 71.0965 8.625 70.7866 7.91406C70.4859 7.20312 70.0666 6.58333 69.5288 6.05469C69.0002 5.51693 68.3758 5.0931 67.6558 4.7832C66.9448 4.47331 66.1838 4.31836 65.3726 4.31836H63.4175V16.0762H65.3726C66.1838 16.0762 66.9448 15.9258 67.6558 15.625C68.3758 15.3151 69.0002 14.8958 69.5288 14.3672C70.0666 13.8294 70.4859 13.2051 70.7866 12.4941C71.0965 11.7741 71.2515 11.0085 71.2515 10.1973Z"
    fill="#0D3D38"
  />
<path
    d="M90.3861 20H76.9466V0.394531H90.3861V4.31836H80.8705V8.24219H87.3099V12.166H80.8705V16.0762H90.3861V20Z"
    fill="#0D3D38"
  />
<path
    d="M96.218 4.31836V12.166H100.142C100.68 12.166 101.185 12.0658 101.659 11.8652C102.133 11.6556 102.548 11.373 102.904 11.0176C103.259 10.6621 103.537 10.2474 103.738 9.77344C103.947 9.29036 104.052 8.77995 104.052 8.24219C104.052 7.70443 103.947 7.19857 103.738 6.72461C103.537 6.24154 103.259 5.82227 102.904 5.4668C102.548 5.11133 102.133 4.83333 101.659 4.63281C101.185 4.42318 100.68 4.31836 100.142 4.31836H96.218ZM96.218 20H92.2941V0.394531H100.142C100.862 0.394531 101.555 0.490234 102.22 0.681641C102.885 0.863932 103.505 1.12826 104.079 1.47461C104.663 1.81185 105.191 2.22201 105.665 2.70508C106.148 3.17904 106.558 3.70768 106.896 4.29102C107.242 4.87435 107.506 5.4987 107.689 6.16406C107.88 6.82943 107.976 7.52214 107.976 8.24219C107.976 8.91667 107.889 9.57292 107.716 10.2109C107.552 10.849 107.31 11.4551 106.991 12.0293C106.682 12.6035 106.299 13.1322 105.843 13.6152C105.387 14.0983 104.877 14.5176 104.312 14.873L106.486 20H102.316L100.607 16.0488L96.218 16.0762V20Z"
    fill="#0D3D38"
  />
<path
    d="M123.446 20H109.72V0.394531H113.644V16.0762H123.446V20Z"
    fill="#0D3D38"
  />
<path
    d="M139.436 12.166C139.436 13.2507 139.231 14.2715 138.821 15.2285C138.411 16.1764 137.85 17.0059 137.14 17.7168C136.429 18.4186 135.595 18.9746 134.638 19.3848C133.69 19.7949 132.673 20 131.589 20C130.504 20 129.483 19.7949 128.526 19.3848C127.578 18.9746 126.749 18.4186 126.038 17.7168C125.336 17.0059 124.78 16.1764 124.37 15.2285C123.96 14.2715 123.755 13.2507 123.755 12.166V0.394531H127.665V12.166C127.665 12.7038 127.765 13.2096 127.966 13.6836C128.175 14.1576 128.458 14.5723 128.813 14.9277C129.169 15.2832 129.584 15.5658 130.057 15.7754C130.541 15.9759 131.051 16.0762 131.589 16.0762C132.127 16.0762 132.632 15.9759 133.106 15.7754C133.589 15.5658 134.009 15.2832 134.364 14.9277C134.72 14.5723 134.998 14.1576 135.198 13.6836C135.408 13.2096 135.513 12.7038 135.513 12.166V0.394531H139.436V12.166Z"
    fill="#0D3D38"
  />
<path
    d="M140.852 6.27344C140.852 5.46224 141.007 4.70117 141.317 3.99023C141.627 3.2793 142.046 2.65951 142.575 2.13086C143.113 1.5931 143.737 1.16927 144.448 0.859375C145.159 0.549479 145.92 0.394531 146.731 0.394531H155.727V4.31836H146.731C146.458 4.31836 146.203 4.36849 145.966 4.46875C145.729 4.56901 145.519 4.71029 145.337 4.89258C145.163 5.06576 145.027 5.27083 144.926 5.50781C144.826 5.74479 144.776 6 144.776 6.27344C144.776 6.54688 144.826 6.80664 144.926 7.05273C145.027 7.28971 145.163 7.49935 145.337 7.68164C145.519 7.85482 145.729 7.99154 145.966 8.0918C146.203 8.19206 146.458 8.24219 146.731 8.24219H150.655C151.466 8.24219 152.227 8.39714 152.938 8.70703C153.658 9.00781 154.283 9.42708 154.811 9.96484C155.349 10.4935 155.768 11.1178 156.069 11.8379C156.379 12.5488 156.534 13.3099 156.534 14.1211C156.534 14.9323 156.379 15.6934 156.069 16.4043C155.768 17.1152 155.349 17.7396 154.811 18.2773C154.283 18.806 153.658 19.2253 152.938 19.5352C152.227 19.8451 151.466 20 150.655 20H141.946V16.0762H150.655C150.928 16.0762 151.184 16.026 151.421 15.9258C151.658 15.8255 151.863 15.6888 152.036 15.5156C152.218 15.3333 152.359 15.1237 152.46 14.8867C152.56 14.6497 152.61 14.3945 152.61 14.1211C152.61 13.8477 152.56 13.5924 152.46 13.3555C152.359 13.1185 152.218 12.9134 152.036 12.7402C151.863 12.5579 151.658 12.4167 151.421 12.3164C151.184 12.2161 150.928 12.166 150.655 12.166H146.731C145.92 12.166 145.159 12.0111 144.448 11.7012C143.737 11.3913 143.113 10.972 142.575 10.4434C142.046 9.9056 141.627 9.28125 141.317 8.57031C141.007 7.85026 140.852 7.08464 140.852 6.27344Z"
    fill="#0D3D38"
  />
<path
    d="M166.235 20H162.325V4.31836H156.432V0.394531H172.114V4.31836H166.235V20Z"
    fill="#0D3D38"
  />
</svg>
