<svg width="90" height="103" viewBox="0 0 90 103" fill="none" xmlns="http://www.w3.org/2000/svg">
<g clip-path="url(#clip0_1203_458)">
<mask id="mask0_1203_458" style="mask-type:luminance" maskUnits="userSpaceOnUse" x="-160" y="-147" width="250" height="250">
<path d="M90 -147H-160V103H90V-147Z" fill="white"/>
</mask>
<g mask="url(#mask0_1203_458)">
<path d="M-42.9004 -140.557C-38.3013 -144.307 -31.6988 -144.307 -27.1001 -140.557L-17.1838 -132.469C-14.0626 -129.924 -9.90756 -129.038 -6.0213 -130.089L6.29871 -133.419C12.02 -134.965 18.04 -132.281 20.715 -126.993L26.5362 -115.481C28.3487 -111.898 31.77 -109.404 35.735 -108.776L48.3962 -106.77C54.2299 -105.846 58.6212 -100.964 58.9237 -95.0646L59.59 -82.077C59.795 -78.0838 61.8987 -74.4294 65.2487 -72.2459L76.0812 -65.185C81.0137 -61.9691 83.0337 -55.7459 80.9287 -50.2456L76.2687 -38.0669C74.8425 -34.3411 75.2812 -30.1586 77.4474 -26.8092L84.5224 -15.8763C87.7187 -10.935 87.0362 -4.43376 82.8824 -0.263763L73.72 8.935C70.9025 11.7637 69.605 15.7675 70.23 19.7112L72.2687 32.585C73.19 38.4087 69.9162 44.085 64.4137 46.205L52.4012 50.83C48.6625 52.27 45.84 55.4138 44.8112 59.2863L41.485 71.8087C39.9662 77.5287 34.645 81.3987 28.7362 81.0825L15.9749 80.4C11.9587 80.185 8.08495 81.915 5.56494 85.0488L-2.48256 95.0587C-6.20006 99.6825 -12.6551 101.056 -17.9338 98.3462L-29.2913 92.515C-32.8751 90.6762 -37.1252 90.6762 -40.7087 92.515L-52.0669 98.3462C-57.3447 101.056 -63.7999 99.6825 -67.5173 95.0587L-75.5651 85.0488C-78.0849 81.915 -81.9588 80.185 -85.9747 80.4L-98.7362 81.0825C-104.645 81.3987 -109.966 77.5287 -111.485 71.8087L-114.812 59.2863C-115.84 55.4138 -118.662 52.27 -122.401 50.83L-134.414 46.205C-139.917 44.085 -143.19 38.4087 -142.268 32.585L-140.23 19.7112C-139.605 15.7675 -140.902 11.7637 -143.72 8.935L-152.883 -0.263763C-157.036 -4.43376 -157.719 -10.935 -154.522 -15.8763L-147.448 -26.8092C-145.281 -30.1586 -144.843 -34.3411 -146.269 -38.0669L-150.929 -50.2456C-153.034 -55.7459 -151.014 -61.9691 -146.081 -65.185L-135.248 -72.2459C-131.899 -74.4294 -129.796 -78.0838 -129.591 -82.077L-128.924 -95.0646C-128.621 -100.964 -124.231 -105.846 -118.397 -106.77L-105.735 -108.776C-101.77 -109.404 -98.3483 -111.898 -96.5366 -115.481L-90.7147 -126.993C-88.0402 -132.281 -82.0196 -134.965 -76.2984 -133.419L-63.9789 -130.089C-60.0921 -129.038 -55.9371 -129.924 -52.8169 -132.469L-42.9004 -140.557Z" fill="#53B9AB"/>
</g>
</g>
<defs>
<clipPath id="clip0_1203_458">
<rect width="250" height="250" fill="white" transform="translate(-160 -147)"/>
</clipPath>
</defs>
</svg>
