<svg width="195" height="195" viewBox="0 0 195 195" fill="none" xmlns="http://www.w3.org/2000/svg">
<path d="M160.182 47.8071C159.491 44.3429 156.727 41.5714 153.273 41.5714H132.545V34.6429C132.545 15.2429 117.345 0 98 0C78.6545 0 63.4545 15.2429 63.4545 34.6429V41.5714H42.7273C39.2727 41.5714 36.5091 44.3429 35.8182 47.8071L22 186.379C22 188.457 22.6909 190.536 24.0727 191.921C25.4545 193.307 26.8364 194 28.9091 194H167.091C169.164 194 171.236 193.307 171.927 191.921C172.618 190.536 174 188.457 174 186.379L160.182 47.8071ZM77.2727 34.6429C77.2727 22.8643 86.2545 13.8571 98 13.8571C109.745 13.8571 118.727 22.8643 118.727 34.6429V41.5714H77.2727V34.6429Z" fill="#FAFEFD"/>
</svg>
